<svg width="198" height="195" viewBox="0 0 198 195" fill="none" xmlns="http://www.w3.org/2000/svg">
<path fill-rule="evenodd" clip-rule="evenodd" d="M69.3717 50H128.37C134.763 50 140.243 51.096 144.809 53.2879C149.375 55.4798 152.862 58.6412 155.27 62.772C157.678 66.8186 158.881 71.7504 158.881 77.5674C158.881 81.6983 157.761 85.6606 155.519 89.4543C154.684 90.8358 153.648 92.1354 152.41 93.3532C153.679 94.237 154.798 95.1714 155.768 96.1564C158.425 98.8541 160.251 101.805 161.248 105.008C162.244 108.128 162.742 111.415 162.742 114.872C162.742 124.145 159.712 131.353 153.651 136.496C147.59 141.638 139.163 144.21 128.37 144.21H69.3717C58.5787 144.21 50.1518 141.638 44.0911 136.496C38.0304 131.353 35 124.145 35 114.872C35 111.415 35.4981 108.128 36.4944 105.008C37.4907 101.805 39.3172 98.8541 41.974 96.1564C42.944 95.1714 44.0634 94.237 45.3322 93.3532C44.0943 92.1354 43.0579 90.8358 42.223 89.4543C39.9814 85.6606 38.8606 81.6983 38.8606 77.5674C38.8606 71.7504 40.0644 66.8186 42.4721 62.772C44.8798 58.6412 48.3668 55.4798 52.9331 53.2879C57.4993 51.096 62.9789 50 69.3717 50ZM108.6 102.479V127.138H130.612C134.514 127.138 137.627 126 139.952 123.724C142.277 121.448 143.439 118.497 143.439 114.872C143.439 111.163 142.277 108.17 139.952 105.894C137.627 103.617 134.514 102.479 130.612 102.479H108.6ZM108.6 85.4077H129.74C132.729 85.4077 135.095 84.5646 136.839 82.8785C138.665 81.1082 139.578 78.7898 139.578 75.9235C139.578 73.0571 138.665 70.7809 136.839 69.0948C135.095 67.3245 132.729 66.4393 129.74 66.4393H108.6V85.4077ZM89.1417 66.4393H68.0018C65.013 66.4393 62.6468 67.3245 60.9033 69.0948C59.0768 70.7809 58.1635 73.0571 58.1635 75.9235C58.1635 78.7898 59.0768 81.1082 60.9033 82.8785C62.6468 84.5646 65.013 85.4077 68.0018 85.4077H89.1417V66.4393ZM89.1417 127.138V102.479H67.1301C63.228 102.479 60.1146 103.617 57.7899 105.894C55.4653 108.17 54.3029 111.163 54.3029 114.872C54.3029 118.497 55.4653 121.448 57.7899 123.724C60.1146 126 63.228 127.138 67.1301 127.138H89.1417Z" fill="url(#paint0_linear_92_1672)"/>
<circle cx="148.1" cy="49.8992" r="49.1195" fill="url(#paint1_linear_92_1672)" fill-opacity="0.5" stroke="url(#paint2_linear_92_1672)" stroke-width="1.55935"/>
<circle cx="49.8992" cy="144.109" r="49.1195" fill="url(#paint3_linear_92_1672)" fill-opacity="0.5" stroke="url(#paint4_linear_92_1672)" stroke-width="1.55935"/>
<path d="M53.44 175V160.1H59.72C60.7067 160.1 61.5467 160.273 62.24 160.62C62.9467 160.953 63.4867 161.433 63.86 162.06C64.2467 162.673 64.44 163.42 64.44 164.3C64.44 164.98 64.2533 165.62 63.88 166.22C63.52 166.807 62.94 167.293 62.14 167.68V166.42C62.8733 166.7 63.4533 167.047 63.88 167.46C64.3067 167.873 64.6067 168.333 64.78 168.84C64.9533 169.347 65.04 169.88 65.04 170.44C65.04 171.867 64.5667 172.987 63.62 173.8C62.6867 174.6 61.3867 175 59.72 175H53.44ZM56.16 172.6H60C60.7067 172.6 61.2667 172.407 61.68 172.02C62.1067 171.62 62.32 171.093 62.32 170.44C62.32 169.787 62.1067 169.26 61.68 168.86C61.2667 168.46 60.7067 168.26 60 168.26H56.16V172.6ZM56.16 165.88H59.86C60.42 165.88 60.8667 165.72 61.2 165.4C61.5333 165.067 61.7 164.64 61.7 164.12C61.7 163.6 61.5333 163.187 61.2 162.88C60.8667 162.573 60.42 162.42 59.86 162.42H56.16V165.88ZM70.4281 175.24C69.6681 175.24 69.0081 175.113 68.4481 174.86C67.8881 174.607 67.4548 174.247 67.1481 173.78C66.8415 173.3 66.6881 172.747 66.6881 172.12C66.6881 171.52 66.8215 170.987 67.0881 170.52C67.3548 170.04 67.7681 169.64 68.3281 169.32C68.8881 169 69.5948 168.773 70.4481 168.64L74.0081 168.06V170.06L70.9481 170.58C70.4281 170.673 70.0415 170.84 69.7881 171.08C69.5348 171.32 69.4081 171.633 69.4081 172.02C69.4081 172.393 69.5481 172.693 69.8281 172.92C70.1215 173.133 70.4815 173.24 70.9081 173.24C71.4548 173.24 71.9348 173.127 72.3481 172.9C72.7748 172.66 73.1015 172.333 73.3281 171.92C73.5681 171.507 73.6881 171.053 73.6881 170.56V167.76C73.6881 167.293 73.5015 166.907 73.1281 166.6C72.7681 166.28 72.2881 166.12 71.6881 166.12C71.1281 166.12 70.6281 166.273 70.1881 166.58C69.7615 166.873 69.4481 167.267 69.2481 167.76L67.1081 166.72C67.3215 166.147 67.6548 165.653 68.1081 165.24C68.5748 164.813 69.1215 164.48 69.7481 164.24C70.3748 164 71.0548 163.88 71.7881 163.88C72.6815 163.88 73.4681 164.047 74.1481 164.38C74.8281 164.7 75.3548 165.153 75.7281 165.74C76.1148 166.313 76.3081 166.987 76.3081 167.76V175H73.8281V173.14L74.3881 173.1C74.1081 173.567 73.7748 173.96 73.3881 174.28C73.0015 174.587 72.5615 174.827 72.0681 175C71.5748 175.16 71.0281 175.24 70.4281 175.24ZM78.8097 175V164.12H81.2697V166.64L80.9897 166.22C81.1897 165.433 81.5897 164.847 82.1897 164.46C82.7897 164.073 83.4964 163.88 84.3097 163.88C85.203 163.88 85.9897 164.113 86.6697 164.58C87.3497 165.047 87.7897 165.66 87.9897 166.42L87.2497 166.48C87.583 165.613 88.083 164.967 88.7497 164.54C89.4164 164.1 90.183 163.88 91.0497 163.88C91.823 163.88 92.5097 164.053 93.1097 164.4C93.723 164.747 94.203 165.233 94.5497 165.86C94.8964 166.473 95.0697 167.187 95.0697 168V175H92.4497V168.62C92.4497 168.14 92.363 167.727 92.1897 167.38C92.0164 167.033 91.7764 166.767 91.4697 166.58C91.163 166.38 90.7897 166.28 90.3497 166.28C89.9364 166.28 89.5697 166.38 89.2497 166.58C88.9297 166.767 88.683 167.033 88.5097 167.38C88.3364 167.727 88.2497 168.14 88.2497 168.62V175H85.6297V168.62C85.6297 168.14 85.543 167.727 85.3697 167.38C85.1964 167.033 84.9497 166.767 84.6297 166.58C84.323 166.38 83.9564 166.28 83.5297 166.28C83.1164 166.28 82.7497 166.38 82.4297 166.58C82.1097 166.767 81.863 167.033 81.6897 167.38C81.5164 167.727 81.4297 168.14 81.4297 168.62V175H78.8097ZM97.5863 175V160.1H103.866C104.853 160.1 105.693 160.273 106.386 160.62C107.093 160.953 107.633 161.433 108.006 162.06C108.393 162.673 108.586 163.42 108.586 164.3C108.586 164.98 108.4 165.62 108.026 166.22C107.666 166.807 107.086 167.293 106.286 167.68V166.42C107.02 166.7 107.6 167.047 108.026 167.46C108.453 167.873 108.753 168.333 108.926 168.84C109.1 169.347 109.186 169.88 109.186 170.44C109.186 171.867 108.713 172.987 107.766 173.8C106.833 174.6 105.533 175 103.866 175H97.5863ZM100.306 172.6H104.146C104.853 172.6 105.413 172.407 105.826 172.02C106.253 171.62 106.466 171.093 106.466 170.44C106.466 169.787 106.253 169.26 105.826 168.86C105.413 168.46 104.853 168.26 104.146 168.26H100.306V172.6ZM100.306 165.88H104.006C104.566 165.88 105.013 165.72 105.346 165.4C105.68 165.067 105.846 164.64 105.846 164.12C105.846 163.6 105.68 163.187 105.346 162.88C105.013 162.573 104.566 162.42 104.006 162.42H100.306V165.88ZM114.574 175.24C113.814 175.24 113.154 175.113 112.594 174.86C112.034 174.607 111.601 174.247 111.294 173.78C110.988 173.3 110.834 172.747 110.834 172.12C110.834 171.52 110.968 170.987 111.234 170.52C111.501 170.04 111.914 169.64 112.474 169.32C113.034 169 113.741 168.773 114.594 168.64L118.154 168.06V170.06L115.094 170.58C114.574 170.673 114.188 170.84 113.934 171.08C113.681 171.32 113.554 171.633 113.554 172.02C113.554 172.393 113.694 172.693 113.974 172.92C114.268 173.133 114.628 173.24 115.054 173.24C115.601 173.24 116.081 173.127 116.494 172.9C116.921 172.66 117.248 172.333 117.474 171.92C117.714 171.507 117.834 171.053 117.834 170.56V167.76C117.834 167.293 117.648 166.907 117.274 166.6C116.914 166.28 116.434 166.12 115.834 166.12C115.274 166.12 114.774 166.273 114.334 166.58C113.908 166.873 113.594 167.267 113.394 167.76L111.254 166.72C111.468 166.147 111.801 165.653 112.254 165.24C112.721 164.813 113.268 164.48 113.894 164.24C114.521 164 115.201 163.88 115.934 163.88C116.828 163.88 117.614 164.047 118.294 164.38C118.974 164.7 119.501 165.153 119.874 165.74C120.261 166.313 120.454 166.987 120.454 167.76V175H117.974V173.14L118.534 173.1C118.254 173.567 117.921 173.96 117.534 174.28C117.148 174.587 116.708 174.827 116.214 175C115.721 175.16 115.174 175.24 114.574 175.24ZM122.956 175V164.12H125.416V166.26L125.216 165.88C125.469 165.227 125.883 164.733 126.456 164.4C127.043 164.053 127.723 163.88 128.496 163.88C129.296 163.88 130.003 164.053 130.616 164.4C131.243 164.747 131.729 165.233 132.076 165.86C132.423 166.473 132.596 167.187 132.596 168V175H129.976V168.62C129.976 168.14 129.883 167.727 129.696 167.38C129.509 167.033 129.249 166.767 128.916 166.58C128.596 166.38 128.216 166.28 127.776 166.28C127.349 166.28 126.969 166.38 126.636 166.58C126.303 166.767 126.043 167.033 125.856 167.38C125.669 167.727 125.576 168.14 125.576 168.62V175H122.956ZM134.891 175V159.86H137.511V169.78L136.511 169.48L141.631 164.12H144.891L140.871 168.5L144.971 175H141.971L138.411 169.36L139.971 169.04L136.691 172.56L137.511 170.96V175H134.891Z" fill="#3A3A3A"/>
<defs>
<linearGradient id="paint0_linear_92_1672" x1="99.1356" y1="0.366042" x2="99.1356" y2="179.617" gradientUnits="userSpaceOnUse">
<stop stop-color="#FF7715"/>
<stop offset="1" stop-color="#FFB74B"/>
</linearGradient>
<linearGradient id="paint1_linear_92_1672" x1="148.1" y1="0" x2="148.1" y2="99.7984" gradientUnits="userSpaceOnUse">
<stop stop-color="white" stop-opacity="0"/>
<stop offset="1" stop-color="white"/>
</linearGradient>
<linearGradient id="paint2_linear_92_1672" x1="142.911" y1="-64.6694" x2="148.1" y2="99.7984" gradientUnits="userSpaceOnUse">
<stop stop-color="white"/>
<stop offset="1" stop-color="white" stop-opacity="0"/>
</linearGradient>
<linearGradient id="paint3_linear_92_1672" x1="49.8992" y1="94.2097" x2="49.8992" y2="194.008" gradientUnits="userSpaceOnUse">
<stop stop-color="white" stop-opacity="0"/>
<stop offset="1" stop-color="white"/>
</linearGradient>
<linearGradient id="paint4_linear_92_1672" x1="44.7097" y1="29.5404" x2="49.8992" y2="194.008" gradientUnits="userSpaceOnUse">
<stop stop-color="white"/>
<stop offset="1" stop-color="white" stop-opacity="0"/>
</linearGradient>
</defs>
</svg>
