<svg width="191" height="191" viewBox="0 0 191 191" fill="none" xmlns="http://www.w3.org/2000/svg">
<path fill-rule="evenodd" clip-rule="evenodd" d="M-28.3698 0H110.031C125.027 0 137.881 2.57092 148.593 7.71276C159.305 12.8546 167.485 20.2707 173.133 29.9611C178.781 39.4537 181.605 51.0228 181.605 64.6685C181.605 74.3588 178.975 83.6537 173.717 92.553C171.759 95.7938 169.327 98.8426 166.423 101.699C169.4 103.773 172.026 105.965 174.301 108.275C180.534 114.604 184.818 121.525 187.155 129.04C189.492 136.358 190.661 144.07 190.661 152.179C190.661 173.932 183.552 190.841 169.335 202.905C155.118 214.968 135.349 221 110.031 221H-28.3698C-53.6884 221 -73.4565 214.968 -87.6739 202.905C-101.891 190.841 -109 173.932 -109 152.179C-109 144.07 -107.831 136.358 -105.494 129.04C-103.157 121.525 -98.8725 114.604 -92.6402 108.275C-90.3648 105.965 -87.7388 103.773 -84.7623 101.699C-87.6663 98.8426 -90.0975 95.7938 -92.056 92.553C-97.3145 83.6537 -99.9437 74.3588 -99.9437 64.6685C-99.9437 51.0228 -97.1197 39.4537 -91.4717 29.9611C-85.8237 20.2707 -77.6438 12.8546 -66.9321 7.71276C-56.2203 2.57092 -43.3662 0 -28.3698 0ZM63.6538 123.107V180.953H115.289C124.443 180.953 131.746 178.283 137.2 172.944C142.653 167.604 145.38 160.682 145.38 152.179C145.38 143.477 142.653 136.456 137.2 131.117C131.746 125.777 124.443 123.107 115.289 123.107H63.6538ZM63.6538 83.0604H113.244C120.256 83.0604 125.806 81.0828 129.896 77.1275C134.181 72.9745 136.323 67.536 136.323 60.8121C136.323 54.0882 134.181 48.7486 129.896 44.7933C125.806 40.6403 120.256 38.5638 113.244 38.5638H63.6538V83.0604ZM18.0072 38.5638H-31.5833C-38.5946 38.5638 -44.1453 40.6403 -48.2352 44.7933C-52.5199 48.7486 -54.6623 54.0882 -54.6623 60.8121C-54.6623 67.536 -52.5199 72.9745 -48.2352 77.1275C-44.1453 81.0828 -38.5946 83.0604 -31.5833 83.0604H18.0072V38.5638ZM18.0072 180.953V123.107H-33.6283C-42.7819 123.107 -50.0854 125.777 -55.5387 131.117C-60.9919 136.456 -63.7185 143.477 -63.7185 152.179C-63.7185 160.682 -60.9919 167.604 -55.5387 172.944C-50.0854 178.283 -42.7819 180.953 -33.6283 180.953H18.0072Z" fill="#3F3F3F"/>
</svg>
