<svg width="20" height="20" viewBox="0 0 20 20" fill="none" xmlns="http://www.w3.org/2000/svg">
<path d="M8.75 7C8.75 6.58579 8.41421 6.25 8 6.25C7.58579 6.25 7.25 6.58579 7.25 7V8C7.25 8.41421 7.58579 8.75 8 8.75C8.41421 8.75 8.75 8.41421 8.75 8V7Z" fill="#3A3A3A"/>
<path d="M12 6.25C12.4142 6.25 12.75 6.58579 12.75 7V8C12.75 8.41421 12.4142 8.75 12 8.75C11.5858 8.75 11.25 8.41421 11.25 8V7C11.25 6.58579 11.5858 6.25 12 6.25Z" fill="#3A3A3A"/>
<path d="M5.61413 10.3569C5.96782 10.1447 6.42614 10.258 6.64042 10.6097L6.64395 10.6152C6.64866 10.6225 6.65781 10.6363 6.67146 10.6558C6.6988 10.6949 6.74392 10.7562 6.80742 10.8324C6.93483 10.9853 7.13333 11.1948 7.40728 11.4055C7.94955 11.8227 8.79265 12.25 10 12.25C11.2073 12.25 12.0505 11.8227 12.5927 11.4055C12.8667 11.1948 13.0652 10.9853 13.1926 10.8324C13.2561 10.7562 13.3012 10.6949 13.3285 10.6558C13.3422 10.6363 13.3513 10.6225 13.356 10.6152L13.3596 10.6097C13.5739 10.258 14.0322 10.1447 14.3859 10.3569C14.7411 10.57 14.8562 11.0307 14.6431 11.3859L14 11C14.6431 11.3859 14.6433 11.3855 14.6431 11.3859L14.6423 11.3873L14.6413 11.3888L14.6391 11.3925L14.6332 11.4021C14.6286 11.4095 14.6227 11.4187 14.6156 11.4297C14.6014 11.4517 14.582 11.4808 14.5574 11.516C14.5082 11.5863 14.4377 11.6813 14.3449 11.7926C14.1598 12.0147 13.8833 12.3052 13.5073 12.5945C12.7495 13.1773 11.5927 13.75 10 13.75C8.40735 13.75 7.25045 13.1773 6.49272 12.5945C6.11667 12.3052 5.84017 12.0147 5.65508 11.7926C5.56233 11.6813 5.49183 11.5863 5.44261 11.516C5.41797 11.4808 5.3986 11.4517 5.38437 11.4297C5.37725 11.4187 5.37141 11.4095 5.36684 11.4021L5.36092 11.3925L5.35867 11.3888L5.35771 11.3873C5.35751 11.3869 5.35688 11.3859 6 11L5.35688 11.3859C5.14377 11.0307 5.25894 10.57 5.61413 10.3569Z" fill="#3A3A3A"/>
<path fill-rule="evenodd" clip-rule="evenodd" d="M20 10C20 15.5228 15.5228 20 10 20C4.47715 20 0 15.5228 0 10C0 4.47715 4.47715 0 10 0C15.5228 0 20 4.47715 20 10ZM18.5 10C18.5 14.6944 14.6944 18.5 10 18.5C5.30558 18.5 1.5 14.6944 1.5 10C1.5 5.30558 5.30558 1.5 10 1.5C14.6944 1.5 18.5 5.30558 18.5 10Z" fill="#3A3A3A"/>
</svg>
