<svg width="18" height="20" viewBox="0 0 18 20" fill="none" xmlns="http://www.w3.org/2000/svg">
<path d="M1 5C1 4.44772 1.44772 4 2 4H16C16.5523 4 17 4.44772 17 5V6C17 6.55228 16.5523 7 16 7H2C1.44772 7 1 6.55228 1 6V5Z" stroke="white" stroke-width="1.5"/>
<path d="M6 4V4C6 2.34315 7.34315 1 9 1V1C10.6569 1 12 2.34315 12 4V4" stroke="white" stroke-width="1.5" stroke-linecap="round" stroke-linejoin="round"/>
<path d="M3.62521 18.1443L2 7H16L14.3748 18.1443C14.3031 18.6357 13.8818 19 13.3853 19H4.61474C4.1182 19 3.69687 18.6357 3.62521 18.1443Z" stroke="white" stroke-width="1.5" stroke-linecap="round" stroke-linejoin="round"/>
<path d="M13 10L12 16M5 10L6 16M9 16V10" stroke="white" stroke-width="1.5" stroke-linecap="round" stroke-linejoin="round"/>
</svg>
