<svg width="18" height="20" viewBox="0 0 18 20" fill="none" xmlns="http://www.w3.org/2000/svg">
<path d="M2.44721 2.10557C2.786 1.428 3.47852 1 4.23607 1H13.7639C14.5215 1 15.214 1.428 15.5528 2.10557L16.5528 4.10557C17.2177 5.43538 16.2507 7 14.7639 7H3.23607C1.7493 7 0.782313 5.43537 1.44721 4.10557L2.44721 2.10557Z" stroke="white" stroke-width="1.5"/>
<path d="M9 9L8 11H10L9 13" stroke="white" stroke-width="1.5" stroke-linecap="round" stroke-linejoin="round"/>
<path d="M1 5V13C1 14.1046 1.89543 15 3 15H15C16.1046 15 17 14.1046 17 13V5" stroke="white" stroke-width="1.5" stroke-linecap="round" stroke-linejoin="round"/>
<path d="M5 15V19" stroke="white" stroke-width="1.5" stroke-linecap="round" stroke-linejoin="round"/>
<path d="M13 15V19" stroke="white" stroke-width="1.5" stroke-linecap="round" stroke-linejoin="round"/>
</svg>
