<svg width="88" height="88" viewBox="0 0 88 88" fill="none" xmlns="http://www.w3.org/2000/svg">
<path d="M38.5 30.8C38.5 28.9775 37.0225 27.5 35.2 27.5C33.3775 27.5 31.9 28.9775 31.9 30.8V35.2C31.9 37.0225 33.3775 38.5 35.2 38.5C37.0225 38.5 38.5 37.0225 38.5 35.2V30.8Z" fill="#FCC97C"/>
<path d="M52.8 27.5C54.6225 27.5 56.1 28.9775 56.1 30.8V35.2C56.1 37.0225 54.6225 38.5 52.8 38.5C50.9775 38.5 49.5 37.0225 49.5 35.2V30.8C49.5 28.9775 50.9775 27.5 52.8 27.5Z" fill="#FCC97C"/>
<path d="M24.7022 45.5703C26.2584 44.6365 28.275 45.1351 29.2178 46.6825L29.2334 46.7069C29.2541 46.7389 29.2943 46.7999 29.3544 46.8857C29.4747 47.0576 29.6733 47.3271 29.9526 47.6624C30.5132 48.3351 31.3867 49.2571 32.592 50.1843C34.978 52.0197 38.6877 53.9 44 53.9C49.3123 53.9 53.022 52.0197 55.408 50.1843C56.6133 49.2571 57.4868 48.3351 58.0474 47.6624C58.3267 47.3271 58.5253 47.0576 58.6456 46.8857C58.7057 46.7999 58.7459 46.7389 58.7666 46.7069L58.7822 46.6825C59.725 45.1351 61.7416 44.6365 63.2978 45.5703C64.8607 46.508 65.3674 48.535 64.4297 50.0978L61.6 48.4C64.4297 50.0978 64.4306 50.0963 64.4297 50.0978L64.4261 50.1039L64.4219 50.1109L64.412 50.1272L64.3859 50.1694C64.3658 50.2017 64.3401 50.2424 64.3088 50.2908C64.2462 50.3876 64.1609 50.5157 64.0525 50.6706C63.836 50.9799 63.5258 51.3979 63.1176 51.8876C62.3032 52.8649 61.0867 54.1429 59.432 55.4157C56.098 57.9803 51.0077 60.5 44 60.5C36.9923 60.5 31.902 57.9803 28.568 55.4157C26.9133 54.1429 25.6968 52.8649 24.8824 51.8876C24.4742 51.3979 24.164 50.9799 23.9475 50.6706C23.8391 50.5157 23.7538 50.3876 23.6912 50.2908C23.6599 50.2424 23.6342 50.2017 23.6141 50.1694L23.588 50.1272L23.5781 50.1109L23.5739 50.1039C23.573 50.1024 23.5703 50.0978 26.4 48.4L23.5703 50.0978C22.6326 48.535 23.1394 46.508 24.7022 45.5703Z" fill="#FCC97C"/>
<path fill-rule="evenodd" clip-rule="evenodd" d="M88 44C88 68.3005 68.3005 88 44 88C19.6995 88 0 68.3005 0 44C0 19.6995 19.6995 0 44 0C68.3005 0 88 19.6995 88 44ZM81.4 44C81.4 64.6555 64.6555 81.4 44 81.4C23.3446 81.4 6.6 64.6555 6.6 44C6.6 23.3446 23.3446 6.6 44 6.6C64.6555 6.6 81.4 23.3446 81.4 44Z" fill="#FCC97C"/>
</svg>
