<svg width="190" height="190" viewBox="0 0 190 190" fill="none" xmlns="http://www.w3.org/2000/svg">
<circle cx="95" cy="95" r="95" fill="#FFF9EF"/>
<path fill-rule="evenodd" clip-rule="evenodd" d="M138 95C138 119.301 118.301 139 94 139C69.6995 139 50 119.301 50 95C50 70.6995 69.6995 51 94 51C118.301 51 138 70.6995 138 95ZM131.4 95C131.4 115.655 114.655 132.4 94 132.4C73.3445 132.4 56.6 115.655 56.6 95C56.6 74.3445 73.3445 57.6 94 57.6C114.655 57.6 131.4 74.3445 131.4 95Z" fill="#FCC97C"/>
<path d="M107.475 79.2574L88.3003 98.432L79.7426 89.8744C77.3995 87.5312 73.6005 87.5312 71.2574 89.8744C68.9142 92.2175 68.9142 96.0165 71.2574 98.3596L83.9853 111.088C85.2793 112.382 87.0173 112.961 88.709 112.826C90.1341 112.749 91.537 112.166 92.6257 111.077L115.96 87.7426C118.303 85.3995 118.303 81.6005 115.96 79.2574C113.617 76.9142 109.818 76.9142 107.475 79.2574L109.211 80.993L107.475 79.2574Z" fill="#3A3A3A" stroke="white" stroke-width="5"/>
</svg>
