<svg width="190" height="190" viewBox="0 0 190 190" fill="none" xmlns="http://www.w3.org/2000/svg">
<circle cx="95" cy="95" r="95" fill="#FFF9EF"/>
<path d="M88.5 81.8C88.5 79.9775 87.0225 78.5 85.2 78.5C83.3775 78.5 81.9 79.9775 81.9 81.8V86.2C81.9 88.0225 83.3775 89.5 85.2 89.5C87.0225 89.5 88.5 88.0225 88.5 86.2V81.8Z" fill="#FCC97C"/>
<path d="M102.8 78.5C104.623 78.5 106.1 79.9775 106.1 81.8V86.2C106.1 88.0225 104.623 89.5 102.8 89.5C100.977 89.5 99.5 88.0225 99.5 86.2V81.8C99.5 79.9775 100.977 78.5 102.8 78.5Z" fill="#FCC97C"/>
<path fill-rule="evenodd" clip-rule="evenodd" d="M138 95C138 119.301 118.301 139 94 139C69.6995 139 50 119.301 50 95C50 70.6995 69.6995 51 94 51C118.301 51 138 70.6995 138 95ZM131.4 95C131.4 115.655 114.655 132.4 94 132.4C73.3445 132.4 56.6 115.655 56.6 95C56.6 74.3445 73.3445 57.6 94 57.6C114.655 57.6 131.4 74.3445 131.4 95Z" fill="#FCC97C"/>
<path d="M74.7022 111.029C76.2584 111.963 78.275 111.464 79.2178 109.917L79.2334 109.893C79.2541 109.861 79.2943 109.8 79.3544 109.714C79.4747 109.542 79.6733 109.272 79.9526 108.937C80.5132 108.264 81.3867 107.342 82.592 106.415C84.978 104.58 88.6877 102.7 94 102.7C99.3123 102.7 103.022 104.58 105.408 106.415C106.613 107.342 107.487 108.264 108.047 108.937C108.327 109.272 108.525 109.542 108.646 109.714C108.706 109.8 108.746 109.861 108.767 109.893L108.782 109.917C109.725 111.464 111.742 111.963 113.298 111.029C114.861 110.092 115.367 108.064 114.43 106.502L111.6 108.2C114.43 106.502 114.43 106.502 114.43 106.502L114.426 106.496L114.422 106.489L114.412 106.472L114.386 106.43C114.366 106.398 114.34 106.357 114.309 106.309C114.246 106.212 114.161 106.084 114.053 105.929C113.836 105.62 113.526 105.202 113.118 104.712C112.303 103.735 111.087 102.457 109.432 101.184C106.098 98.6192 101.008 96.0995 94 96.0995C86.9923 96.0995 81.902 98.6192 78.568 101.184C76.9133 102.457 75.6968 103.735 74.8824 104.712C74.4742 105.202 74.164 105.62 73.9475 105.929C73.8391 106.084 73.7538 106.212 73.6912 106.309C73.6599 106.357 73.6342 106.398 73.6141 106.43L73.588 106.472L73.5781 106.489L73.5739 106.496C73.5739 106.496 73.5703 106.502 76.4 108.2L73.5703 106.502C72.6326 108.064 73.1393 110.092 74.7022 111.029Z" fill="#FCC97C"/>
</svg>
