<svg width="41" height="41" viewBox="0 0 41 41" fill="none" xmlns="http://www.w3.org/2000/svg">
<path d="M4.25744 12.7426L11.682 20.1672L4.25736 27.5919C1.91421 29.935 1.91421 33.734 4.25736 36.0772C6.60051 38.4203 10.3995 38.4203 12.7426 36.0772L20.1673 28.6525L27.592 36.0772C29.9351 38.4203 33.7341 38.4203 36.0772 36.0772C38.4204 33.734 38.4204 29.935 36.0773 27.5919L28.6526 20.1672L36.0772 12.7426C38.4203 10.3995 38.4203 6.6005 36.0772 4.25736C33.734 1.91421 29.935 1.91421 27.5919 4.25736L20.1673 11.6819L12.7427 4.25736C10.3996 1.91422 6.60059 1.91422 4.25745 4.25736C1.9143 6.60051 1.9143 10.3995 4.25744 12.7426Z" fill="#3A3A3A" stroke="white" stroke-width="5"/>
</svg>
