<svg width="190" height="190" viewBox="0 0 190 190" fill="none" xmlns="http://www.w3.org/2000/svg">
<circle cx="95" cy="95" r="95" fill="#FFF9EF"/>
<path d="M107 79.381L110.25 79.381V79.381H107ZM81.9593 69.01C80.72 70.3085 80.768 72.3657 82.0664 73.605C83.3648 74.8443 85.4221 74.7963 86.6613 73.4979L81.9593 69.01ZM106.658 61.8214C108.181 62.771 110.185 62.3061 111.135 60.783C112.085 59.2599 111.62 57.2553 110.097 56.3056L106.658 61.8214ZM119.288 65.4842C118.345 63.9565 116.343 63.4821 114.815 64.4244C113.288 65.3668 112.813 67.3692 113.756 68.8968L119.288 65.4842ZM103.75 95.6349C103.75 97.4298 105.205 98.8849 107 98.8849C108.795 98.8849 110.25 97.4299 110.25 95.6349L103.75 95.6349ZM116.75 95.6349C116.75 97.4298 118.205 98.8849 120 98.8849C121.795 98.8849 123.25 97.4298 123.25 95.6349H116.75ZM97.25 79.381C97.25 77.586 95.7949 76.131 94 76.131C92.2051 76.131 90.75 77.586 90.75 79.381H97.25ZM90.75 95.6349C90.75 97.4298 92.2051 98.8849 94 98.8849C95.7949 98.8849 97.25 97.4298 97.25 95.6349H90.75ZM84.25 85.4762C84.25 83.6813 82.7949 82.2262 81 82.2262C79.2051 82.2262 77.75 83.6813 77.75 85.4762H84.25ZM77.75 95.6349C77.75 97.4298 79.2051 98.8849 81 98.8849C82.7949 98.8849 84.25 97.4298 84.25 95.6349H77.75ZM64.75 95.6349C64.75 97.4298 66.2051 98.8849 68 98.8849C69.7949 98.8849 71.25 97.4298 71.25 95.6349H64.75ZM80.9999 110.619L77.7499 110.619V110.619H80.9999ZM106.041 120.99C107.28 119.692 107.232 117.634 105.934 116.395C104.635 115.156 102.578 115.204 101.339 116.502L106.041 120.99ZM81.3424 128.179C79.8192 127.229 77.8147 127.694 76.865 129.217C75.9154 130.74 76.3803 132.745 77.9034 133.694L81.3424 128.179ZM68.7123 124.516C69.6547 126.043 71.657 126.518 73.1847 125.576C74.7123 124.633 75.1867 122.631 74.2444 121.103L68.7123 124.516ZM84.25 94.3651C84.25 92.5702 82.7949 91.1151 81 91.1151C79.2051 91.1151 77.75 92.5701 77.75 94.365L84.25 94.3651ZM71.25 94.3651C71.25 92.5701 69.7949 91.1151 68 91.1151C66.2051 91.1151 64.75 92.5701 64.75 94.3651H71.25ZM90.75 110.619C90.75 112.414 92.2051 113.869 94 113.869C95.7949 113.869 97.25 112.414 97.25 110.619H90.75ZM97.25 94.3651C97.25 92.5701 95.7949 91.1151 94 91.1151C92.2051 91.1151 90.75 92.5701 90.75 94.3651H97.25ZM103.75 104.524C103.75 106.319 105.205 107.774 107 107.774C108.795 107.774 110.25 106.319 110.25 104.524H103.75ZM110.25 94.3651C110.25 92.5702 108.795 91.1151 107 91.1151C105.205 91.1151 103.75 92.5702 103.75 94.3651H110.25ZM123.25 94.3651C123.25 92.5702 121.795 91.1151 120 91.1151C118.205 91.1151 116.75 92.5702 116.75 94.3651H123.25ZM94.0001 70.4405C99.5849 70.4405 103.75 74.6369 103.75 79.381H110.25C110.25 70.6597 102.775 63.9405 94.0001 63.9405V70.4405ZM86.6613 73.4979C88.4298 71.6451 91.0401 70.4405 94.0001 70.4405V63.9405C89.2599 63.9405 84.9517 65.8749 81.9593 69.01L86.6613 73.4979ZM71.25 79.381C71.25 67.9043 81.2355 58.25 94 58.25V51.75C78.0457 51.75 64.75 63.9271 64.75 79.381H71.25ZM94 58.25C98.7015 58.25 103.05 59.5721 106.658 61.8214L110.097 56.3056C105.468 53.4199 99.9302 51.75 94 51.75V58.25ZM113.756 68.8968C115.666 71.9932 116.75 75.5695 116.75 79.381H123.25C123.25 74.3108 121.802 69.56 119.288 65.4842L113.756 68.8968ZM103.75 79.3809L103.75 95.6349L110.25 95.6349L110.25 79.381L103.75 79.3809ZM116.75 79.381V95.6349H123.25V79.381H116.75ZM90.75 79.381V95.6349H97.25V79.381H90.75ZM77.75 85.4762V95.6349H84.25V85.4762H77.75ZM64.75 79.381V95.6349H71.25V79.381H64.75ZM93.9999 119.56C88.4151 119.56 84.2499 115.363 84.2499 110.619H77.7499C77.7499 119.34 85.2253 126.06 93.9999 126.06V119.56ZM101.339 116.502C99.5703 118.355 96.96 119.56 93.9999 119.56V126.06C98.7402 126.06 103.048 124.125 106.041 120.99L101.339 116.502ZM116.75 110.619C116.75 122.096 106.764 131.75 94 131.75V138.25C109.954 138.25 123.25 126.073 123.25 110.619H116.75ZM94 131.75C89.2985 131.75 84.95 130.428 81.3424 128.179L77.9034 133.694C82.5318 136.58 88.0698 138.25 94 138.25V131.75ZM74.2444 121.103C72.3343 118.007 71.25 114.431 71.25 110.619H64.75C64.75 115.689 66.198 120.44 68.7123 124.516L74.2444 121.103ZM84.2499 110.619L84.25 94.3651L77.75 94.365L77.7499 110.619L84.2499 110.619ZM71.25 110.619V94.3651H64.75V110.619H71.25ZM97.25 110.619V94.3651H90.75V110.619H97.25ZM110.25 104.524V94.3651H103.75V104.524H110.25ZM123.25 110.619V94.3651H116.75V110.619H123.25Z" fill="#FCC97C"/>
<path d="M78.2574 87.7961L85.682 95.2207L78.2574 102.645C75.9142 104.988 75.9142 108.787 78.2574 111.131C80.6005 113.474 84.3995 113.474 86.7426 111.131L94.1673 103.706L101.592 111.131C103.935 113.474 107.734 113.474 110.077 111.131C112.42 108.787 112.42 104.989 110.077 102.645L102.653 95.2207L110.077 87.7961C112.42 85.453 112.42 81.654 110.077 79.3108C107.734 76.9677 103.935 76.9677 101.592 79.3108L94.1673 86.7354L86.7427 79.3108C84.3996 76.9677 80.6006 76.9677 78.2574 79.3108C75.9143 81.654 75.9143 85.453 78.2574 87.7961Z" fill="#3A3A3A" stroke="white" stroke-width="5"/>
</svg>
