<svg width="60" height="88" viewBox="0 0 60 88" fill="none" xmlns="http://www.w3.org/2000/svg">
<path d="M43.0001 28.381L46.2501 28.381V28.381H43.0001ZM17.9593 18.01C16.72 19.3085 16.768 21.3657 18.0664 22.605C19.3648 23.8443 21.4221 23.7963 22.6613 22.4979L17.9593 18.01ZM42.6576 10.8214C44.1808 11.771 46.1853 11.3061 47.135 9.78298C48.0846 8.25985 47.6197 6.25527 46.0966 5.30562L42.6576 10.8214ZM55.2877 14.4842C54.3453 12.9565 52.343 12.4821 50.8153 13.4244C49.2877 14.3668 48.8133 16.3692 49.7556 17.8968L55.2877 14.4842ZM39.75 44.6349C39.75 46.4298 41.205 47.8849 43 47.8849C44.7949 47.8849 46.25 46.4299 46.25 44.6349L39.75 44.6349ZM52.75 44.6349C52.75 46.4298 54.2051 47.8849 56 47.8849C57.7949 47.8849 59.25 46.4298 59.25 44.6349H52.75ZM33.25 28.381C33.25 26.586 31.7949 25.131 30 25.131C28.2051 25.131 26.75 26.586 26.75 28.381H33.25ZM26.75 44.6349C26.75 46.4298 28.2051 47.8849 30 47.8849C31.7949 47.8849 33.25 46.4298 33.25 44.6349H26.75ZM20.25 34.4762C20.25 32.6813 18.7949 31.2262 17 31.2262C15.2051 31.2262 13.75 32.6813 13.75 34.4762H20.25ZM13.75 44.6349C13.75 46.4298 15.2051 47.8849 17 47.8849C18.7949 47.8849 20.25 46.4298 20.25 44.6349H13.75ZM0.75 44.6349C0.75 46.4298 2.20507 47.8849 4 47.8849C5.79493 47.8849 7.25 46.4298 7.25 44.6349H0.75ZM16.9999 59.619L13.7499 59.619V59.619H16.9999ZM42.0407 69.99C43.28 68.6915 43.2321 66.6343 41.9336 65.395C40.6352 64.1557 38.578 64.2037 37.3387 65.5021L42.0407 69.99ZM17.3424 77.1786C15.8192 76.229 13.8147 76.6939 12.865 78.217C11.9154 79.7402 12.3803 81.7447 13.9034 82.6944L17.3424 77.1786ZM4.7123 73.5158C5.65467 75.0435 7.65702 75.5179 9.18466 74.5756C10.7123 73.6332 11.1867 71.6308 10.2444 70.1032L4.7123 73.5158ZM20.25 43.3651C20.25 41.5702 18.7949 40.1151 17 40.1151C15.2051 40.1151 13.75 41.5701 13.75 43.365L20.25 43.3651ZM7.25 43.3651C7.25 41.5701 5.79493 40.1151 4 40.1151C2.20507 40.1151 0.75 41.5701 0.75 43.3651H7.25ZM26.75 59.619C26.75 61.414 28.2051 62.869 30 62.869C31.7949 62.869 33.25 61.414 33.25 59.619H26.75ZM33.25 43.3651C33.25 41.5701 31.7949 40.1151 30 40.1151C28.2051 40.1151 26.75 41.5701 26.75 43.3651H33.25ZM39.75 53.5238C39.75 55.3187 41.2051 56.7738 43 56.7738C44.7949 56.7738 46.25 55.3187 46.25 53.5238H39.75ZM46.25 43.3651C46.25 41.5702 44.7949 40.1151 43 40.1151C41.2051 40.1151 39.75 41.5702 39.75 43.3651H46.25ZM59.25 43.3651C59.25 41.5702 57.7949 40.1151 56 40.1151C54.2051 40.1151 52.75 41.5702 52.75 43.3651H59.25ZM30.0001 19.4405C35.5849 19.4405 39.7501 23.6369 39.7501 28.381H46.2501C46.2501 19.6597 38.7748 12.9405 30.0001 12.9405V19.4405ZM22.6613 22.4979C24.4298 20.6451 27.0401 19.4405 30.0001 19.4405V12.9405C25.2599 12.9405 20.9517 14.8749 17.9593 18.01L22.6613 22.4979ZM7.25 28.381C7.25 16.9043 17.2355 7.25 30 7.25V0.75C14.0457 0.75 0.75 12.9271 0.75 28.381H7.25ZM30 7.25C34.7015 7.25 39.05 8.57207 42.6576 10.8214L46.0966 5.30562C41.4682 2.4199 35.9302 0.75 30 0.75V7.25ZM49.7556 17.8968C51.6657 20.9932 52.75 24.5695 52.75 28.381H59.25C59.25 23.3108 57.802 18.56 55.2877 14.4842L49.7556 17.8968ZM39.7501 28.3809L39.75 44.6349L46.25 44.6349L46.2501 28.381L39.7501 28.3809ZM52.75 28.381V44.6349H59.25V28.381H52.75ZM26.75 28.381V44.6349H33.25V28.381H26.75ZM13.75 34.4762V44.6349H20.25V34.4762H13.75ZM0.75 28.381V44.6349H7.25V28.381H0.75ZM29.9999 68.5595C24.4151 68.5595 20.2499 64.3631 20.2499 59.619H13.7499C13.7499 68.3403 21.2253 75.0595 29.9999 75.0595V68.5595ZM37.3387 65.5021C35.5703 67.3549 32.96 68.5595 29.9999 68.5595V75.0595C34.7402 75.0595 39.0483 73.1251 42.0407 69.99L37.3387 65.5021ZM52.75 59.619C52.75 71.0957 42.7645 80.75 30 80.75V87.25C45.9543 87.25 59.25 75.0729 59.25 59.619H52.75ZM30 80.75C25.2985 80.75 20.95 79.4279 17.3424 77.1786L13.9034 82.6944C18.5318 85.5801 24.0698 87.25 30 87.25V80.75ZM10.2444 70.1032C8.33425 67.0068 7.25 63.4306 7.25 59.619H0.75C0.75 64.6892 2.19799 69.44 4.7123 73.5158L10.2444 70.1032ZM20.2499 59.6191L20.25 43.3651L13.75 43.365L13.7499 59.619L20.2499 59.6191ZM7.25 59.619V43.3651H0.75V59.619H7.25ZM33.25 59.619V43.3651H26.75V59.619H33.25ZM46.25 53.5238V43.3651H39.75V53.5238H46.25ZM59.25 59.619V43.3651H52.75V59.619H59.25Z" fill="#FCC97C"/>
</svg>
