<svg width="20" height="20" viewBox="0 0 20 20" fill="none" xmlns="http://www.w3.org/2000/svg">
<path d="M1 7V4C1 2.34315 2.34315 1 4 1H7M1 13V16C1 17.6569 2.34315 19 4 19H7M19 7V4C19 2.34315 17.6569 1 16 1H13M19 13V16C19 17.6569 17.6569 19 16 19H13" stroke="#160D07" stroke-width="1.5" stroke-linecap="round"/>
<path d="M12.9998 11C12.9998 9.34315 11.6566 8 9.99978 8C9.11128 8 8.31299 8.38625 7.76367 9" stroke="#160D07" stroke-width="1.5" stroke-linecap="round"/>
<path d="M16 11C16 9.90714 15.7078 8.88252 15.1973 8M4 11C4 7.68629 6.68629 5 10 5C11.2267 5 12.3675 5.36815 13.3178 6" stroke="#160D07" stroke-width="1.5" stroke-linecap="round"/>
<path d="M13 11V15" stroke="#160D07" stroke-width="1.5" stroke-linecap="round" stroke-linejoin="round"/>
<path d="M16 11V15" stroke="#160D07" stroke-width="1.5" stroke-linecap="round" stroke-linejoin="round"/>
<path d="M10 11V15" stroke="#160D07" stroke-width="1.5" stroke-linecap="round" stroke-linejoin="round"/>
<path d="M7 12.5V15" stroke="#160D07" stroke-width="1.5" stroke-linecap="round" stroke-linejoin="round"/>
<path d="M4 11V15" stroke="#160D07" stroke-width="1.5" stroke-linecap="round" stroke-linejoin="round"/>
</svg>
