<svg width="18" height="16" viewBox="0 0 18 16" fill="none" xmlns="http://www.w3.org/2000/svg">
<path d="M7 8H17M17 8L14 5M17 8L14 11" stroke="#160D07" stroke-width="1.5" stroke-linecap="round" stroke-linejoin="round"/>
<path d="M11.5 14.0622C10.4359 14.6766 9.22876 15 8 15C6.77124 15 5.56413 14.6766 4.5 14.0622C3.43587 13.4478 2.5522 12.5641 1.93782 11.5C1.32344 10.4359 1 9.22876 1 8C1 6.77124 1.32344 5.56413 1.93782 4.5C2.5522 3.43587 3.43587 2.5522 4.5 1.93782C5.56413 1.32344 6.77124 1 8 1C9.22876 1 10.4359 1.32344 11.5 1.93782" stroke="#160D07" stroke-width="1.5" stroke-linecap="round" stroke-linejoin="round"/>
</svg>
