<svg width="24" height="24" viewBox="0 0 24 24" fill="none" xmlns="http://www.w3.org/2000/svg">
<path d="M5.41688 17H18.5831C19.2741 17 19.7568 16.316 19.5253 15.665L18.6658 13.2475C18.3722 12.4219 18.2222 11.5522 18.2222 10.676V9.22222C18.2222 5.78578 15.4364 3 12 3C8.56356 3 5.77778 5.78578 5.77778 9.22222V10.676C5.77778 11.5522 5.62776 12.4219 5.33422 13.2475L4.47467 15.665C4.2432 16.316 4.72595 17 5.41688 17Z" stroke="#160D07" stroke-width="1.5" stroke-linecap="round" stroke-linejoin="round"/>
<path d="M16 17C16 19.2091 14.2091 21 12 21C9.79086 21 8 19.2091 8 17" stroke="#160D07" stroke-width="1.5"/>
</svg>
