<svg width="190" height="190" viewBox="0 0 190 190" fill="none" xmlns="http://www.w3.org/2000/svg">
<circle cx="95" cy="95" r="95" fill="#FFF9EF"/>
<path d="M85.5999 57.2981C89.7302 49.0994 91.7954 45 95 45C98.2047 45 100.27 49.0994 104.4 57.2981L110.428 69.2637C111.625 71.6405 112.224 72.8288 113.224 73.5896C114.224 74.3504 115.488 74.5795 118.016 75.0376L130.745 77.3442C139.467 78.9246 143.827 79.7149 144.818 82.9068C145.808 86.0988 142.724 89.4226 136.555 96.0701L127.551 105.772C125.763 107.699 124.869 108.662 124.487 109.893C124.105 111.124 124.288 112.454 124.653 115.114L126.492 128.505C127.752 137.681 128.382 142.269 125.789 144.241C123.196 146.214 119.225 144.169 111.282 140.079L99.6897 134.109C97.3871 132.923 96.2358 132.33 95 132.33C93.7642 132.33 92.6129 132.923 90.3103 134.109L78.718 140.079C70.7751 144.169 66.8036 146.214 64.211 144.241C61.6184 142.269 62.2483 137.681 63.5083 128.505L65.3471 115.114C65.7123 112.454 65.8949 111.124 65.513 109.893C65.1311 108.662 64.237 107.699 62.4487 105.772L53.4454 96.0701C47.2765 89.4226 44.192 86.0988 45.1823 82.9068C46.1726 79.7149 50.5334 78.9246 59.255 77.3442L71.9838 75.0376C74.5121 74.5795 75.7762 74.3504 76.776 73.5896C77.7759 72.8288 78.3745 71.6405 79.5719 69.2637L85.5999 57.2981Z" fill="#FCC97C"/>
<path d="M108.475 83.2574L89.3003 102.432L80.7426 93.8744C78.3995 91.5312 74.6005 91.5312 72.2574 93.8744C69.9142 96.2175 69.9142 100.016 72.2574 102.36L84.9853 115.088C86.2793 116.382 88.0173 116.961 89.709 116.826C91.1341 116.749 92.537 116.166 93.6257 115.077L116.96 91.7426C119.303 89.3995 119.303 85.6005 116.96 83.2574C114.617 80.9142 110.818 80.9142 108.475 83.2574L110.211 84.993L108.475 83.2574Z" fill="#3A3A3A" stroke="white" stroke-width="5"/>
</svg>
