<svg width="31" height="17" viewBox="0 0 31 17" fill="none" xmlns="http://www.w3.org/2000/svg">
<path d="M6.20008 15.5801C6.2001 15.7027 6.16375 15.8226 6.09563 15.9246C6.0275 16.0266 5.93067 16.1061 5.81736 16.153C5.70406 16.1999 5.57938 16.2122 5.45909 16.1883C5.33881 16.1643 5.22833 16.1053 5.14162 16.0185L0.181618 11.0585C0.06533 10.9423 -3.24182e-09 10.7845 0 10.6201C3.24182e-09 10.4556 0.06533 10.2979 0.181618 10.1816C0.297906 10.0653 0.455626 10 0.620082 10C0.784538 10 0.942258 10.0653 1.05855 10.1816L6.01855 15.1416C6.07619 15.1991 6.1219 15.2675 6.15306 15.3427C6.18421 15.418 6.20019 15.4986 6.20008 15.5801Z" fill="#FCC97C"/>
<path d="M18.4393 10.6201C18.4394 10.7016 18.4235 10.7822 18.3923 10.8575C18.3612 10.9327 18.3154 11.0011 18.2578 11.0586L13.2978 16.0186C13.1815 16.1349 13.0238 16.2002 12.8593 16.2002C12.6949 16.2002 12.5372 16.1349 12.4209 16.0186C12.3046 15.9023 12.2393 15.7446 12.2393 15.5801C12.2393 15.4157 12.3046 15.2579 12.4209 15.1416L17.3809 10.1816C17.4676 10.0949 17.5781 10.0358 17.6984 10.0119C17.8186 9.98798 17.9433 10.0003 18.0566 10.0472C18.1699 10.0941 18.2668 10.1736 18.3349 10.2756C18.403 10.3776 18.4394 10.4975 18.4393 10.6201Z" fill="#FCC97C"/>
<path d="M18.4393 15.5801C18.4394 15.7027 18.403 15.8226 18.3349 15.9246C18.2668 16.0266 18.1699 16.1061 18.0566 16.153C17.9433 16.1999 17.8186 16.2122 17.6984 16.1883C17.5781 16.1643 17.4676 16.1053 17.3809 16.0185L12.4209 11.0585C12.3046 10.9423 12.2393 10.7845 12.2393 10.6201C12.2393 10.4556 12.3046 10.2979 12.4209 10.1816C12.5372 10.0653 12.6949 10 12.8593 10C13.0238 10 13.1815 10.0653 13.2978 10.1816L18.2578 15.1416C18.3154 15.1991 18.3612 15.2675 18.3923 15.3427C18.4235 15.418 18.4394 15.4986 18.4393 15.5801Z" fill="#FCC97C"/>
<path d="M30.6786 10.6201C30.6787 10.7016 30.6627 10.7822 30.6316 10.8575C30.6004 10.9327 30.5547 11.0011 30.4971 11.0586L25.5371 16.0186C25.4795 16.0762 25.4111 16.1218 25.3359 16.153C25.2607 16.1842 25.18 16.2002 25.0986 16.2002C25.0172 16.2002 24.9365 16.1842 24.8613 16.153C24.7861 16.1218 24.7177 16.0762 24.6601 16.0186C24.6026 15.961 24.5569 15.8926 24.5257 15.8174C24.4946 15.7422 24.4785 15.6615 24.4785 15.5801C24.4785 15.4987 24.4946 15.418 24.5257 15.3428C24.5569 15.2676 24.6026 15.1992 24.6601 15.1416L29.6201 10.1816C29.7068 10.0949 29.8173 10.0358 29.9376 10.0119C30.0579 9.98798 30.1826 10.0003 30.2959 10.0472C30.4092 10.0941 30.506 10.1736 30.5741 10.2756C30.6423 10.3776 30.6786 10.4975 30.6786 10.6201Z" fill="#FCC97C"/>
<path d="M6.20008 10.6201C6.20019 10.7016 6.18421 10.7822 6.15306 10.8575C6.1219 10.9327 6.07619 11.0011 6.01855 11.0586L1.05855 16.0186C0.942258 16.1349 0.784538 16.2002 0.620082 16.2002C0.455626 16.2002 0.297906 16.1349 0.181618 16.0186C0.06533 15.9023 3.24182e-09 15.7446 0 15.5801C-3.24182e-09 15.4157 0.06533 15.2579 0.181618 15.1416L5.14162 10.1816C5.22833 10.0949 5.33881 10.0358 5.45909 10.0119C5.57938 9.98798 5.70406 10.0003 5.81736 10.0472C5.93067 10.0941 6.0275 10.1736 6.09563 10.2756C6.16375 10.3776 6.2001 10.4975 6.20008 10.6201Z" fill="#FCC97C"/>
<path d="M30.6786 15.5801C30.6786 15.7027 30.6423 15.8226 30.5741 15.9246C30.506 16.0266 30.4092 16.1061 30.2959 16.153C30.1826 16.1999 30.0579 16.2122 29.9376 16.1883C29.8173 16.1643 29.7068 16.1053 29.6201 16.0185L24.6601 11.0585C24.6026 11.001 24.5569 10.9326 24.5257 10.8574C24.4946 10.7821 24.4785 10.7015 24.4785 10.6201C24.4785 10.5386 24.4946 10.458 24.5257 10.3828C24.5569 10.3076 24.6026 10.2392 24.6601 10.1816C24.7177 10.124 24.7861 10.0784 24.8613 10.0472C24.9365 10.016 25.0172 10 25.0986 10C25.18 10 25.2607 10.016 25.3359 10.0472C25.4111 10.0784 25.4795 10.124 25.5371 10.1816L30.4971 15.1416C30.5547 15.1991 30.6004 15.2675 30.6316 15.3427C30.6627 15.418 30.6787 15.4986 30.6786 15.5801Z" fill="#FCC97C"/>
<path d="M6.20008 5.58008C6.2001 5.70272 6.16375 5.82261 6.09563 5.92459C6.0275 6.02657 5.93067 6.10606 5.81736 6.15299C5.70406 6.19993 5.57938 6.21221 5.45909 6.18828C5.33881 6.16434 5.22833 6.10528 5.14162 6.01854L0.181618 1.05854C0.06533 0.942255 -3.24182e-09 0.784535 0 0.620079C3.24182e-09 0.455623 0.06533 0.297903 0.181618 0.181615C0.297906 0.0653272 0.455626 -2.86102e-06 0.620082 -2.86102e-06C0.784538 -2.86102e-06 0.942258 0.0653272 1.05855 0.181615L6.01855 5.14162C6.07619 5.19914 6.1219 5.26749 6.15306 5.34274C6.18421 5.41798 6.20019 5.49864 6.20008 5.58008Z" fill="white"/>
<path d="M18.4393 0.620113C18.4394 0.701553 18.4235 0.782212 18.3923 0.857457C18.3612 0.932702 18.3154 1.00105 18.2578 1.05858L13.2978 6.01858C13.1815 6.13487 13.0238 6.2002 12.8593 6.2002C12.6949 6.2002 12.5372 6.13487 12.4209 6.01858C12.3046 5.90229 12.2393 5.74457 12.2393 5.58011C12.2393 5.41566 12.3046 5.25794 12.4209 5.14165L17.3809 0.18165C17.4676 0.0949178 17.5781 0.0358496 17.6984 0.0119171C17.8186 -0.0120153 17.9433 0.000263214 18.0566 0.0471992C18.1699 0.0941353 18.2668 0.173619 18.3349 0.275599C18.403 0.377578 18.4394 0.497472 18.4393 0.620113Z" fill="white"/>
<path d="M18.4393 5.58008C18.4394 5.70272 18.403 5.82261 18.3349 5.92459C18.2668 6.02657 18.1699 6.10606 18.0566 6.15299C17.9433 6.19993 17.8186 6.21221 17.6984 6.18828C17.5781 6.16434 17.4676 6.10528 17.3809 6.01854L12.4209 1.05854C12.3046 0.942255 12.2393 0.784535 12.2393 0.620079C12.2393 0.455623 12.3046 0.297903 12.4209 0.181615C12.5372 0.0653272 12.6949 -2.86102e-06 12.8593 -2.86102e-06C13.0238 -2.86102e-06 13.1815 0.0653272 13.2978 0.181615L18.2578 5.14162C18.3154 5.19914 18.3612 5.26749 18.3923 5.34274C18.4235 5.41798 18.4394 5.49864 18.4393 5.58008Z" fill="white"/>
<path d="M30.6786 0.620113C30.6787 0.701553 30.6627 0.782212 30.6316 0.857457C30.6004 0.932702 30.5547 1.00105 30.4971 1.05858L25.5371 6.01858C25.4795 6.07616 25.4111 6.12183 25.3359 6.15299C25.2607 6.18416 25.18 6.2002 25.0986 6.2002C25.0172 6.2002 24.9365 6.18416 24.8613 6.15299C24.7861 6.12183 24.7177 6.07616 24.6601 6.01858C24.6026 5.961 24.5569 5.89264 24.5257 5.81741C24.4946 5.74218 24.4785 5.66154 24.4785 5.58011C24.4785 5.49868 24.4946 5.41805 24.5257 5.34282C24.5569 5.26759 24.6026 5.19923 24.6601 5.14165L29.6201 0.18165C29.7068 0.0949178 29.8173 0.0358496 29.9376 0.0119171C30.0579 -0.0120153 30.1826 0.000263214 30.2959 0.0471992C30.4092 0.0941353 30.506 0.173619 30.5741 0.275599C30.6423 0.377578 30.6786 0.497472 30.6786 0.620113Z" fill="white"/>
<path d="M6.20008 0.620113C6.20019 0.701553 6.18421 0.782212 6.15306 0.857457C6.1219 0.932702 6.07619 1.00105 6.01855 1.05858L1.05855 6.01858C0.942258 6.13487 0.784538 6.2002 0.620082 6.2002C0.455626 6.2002 0.297906 6.13487 0.181618 6.01858C0.06533 5.90229 3.24182e-09 5.74457 0 5.58011C-3.24182e-09 5.41566 0.06533 5.25794 0.181618 5.14165L5.14162 0.18165C5.22833 0.0949178 5.33881 0.0358496 5.45909 0.0119171C5.57938 -0.0120153 5.70406 0.000263214 5.81736 0.0471992C5.93067 0.0941353 6.0275 0.173619 6.09563 0.275599C6.16375 0.377578 6.2001 0.497472 6.20008 0.620113Z" fill="white"/>
<path d="M30.6786 5.58008C30.6786 5.70272 30.6423 5.82261 30.5741 5.92459C30.506 6.02657 30.4092 6.10606 30.2959 6.15299C30.1826 6.19993 30.0579 6.21221 29.9376 6.18828C29.8173 6.16434 29.7068 6.10528 29.6201 6.01854L24.6601 1.05854C24.6026 1.00096 24.5569 0.932606 24.5257 0.857374C24.4946 0.782143 24.4785 0.701509 24.4785 0.620079C24.4785 0.538649 24.4946 0.458015 24.5257 0.382784C24.5569 0.307552 24.6026 0.239195 24.6601 0.181615C24.7177 0.124035 24.7861 0.0783601 24.8613 0.0471978C24.9365 0.016036 25.0172 -2.86102e-06 25.0986 -2.86102e-06C25.18 -2.86102e-06 25.2607 0.016036 25.3359 0.0471978C25.4111 0.0783601 25.4795 0.124035 25.5371 0.181615L30.4971 5.14162C30.5547 5.19914 30.6004 5.26749 30.6316 5.34274C30.6627 5.41798 30.6787 5.49864 30.6786 5.58008Z" fill="white"/>
</svg>
