<svg width="44" height="44" viewBox="0 0 44 44" fill="none" xmlns="http://www.w3.org/2000/svg">
<path d="M17.8639 5.41116C19.6813 1.80372 20.59 -4.322e-08 22 0C23.41 4.322e-08 24.3187 1.80372 26.1361 5.41116L28.7884 10.676C29.3152 11.7218 29.5786 12.2447 30.0185 12.5794C30.4585 12.9142 31.0147 13.015 32.1271 13.2165L37.7278 14.2314C41.5653 14.9268 43.4841 15.2745 43.9198 16.679C44.3555 18.0835 42.9983 19.5459 40.284 22.4708L36.3226 26.7396C35.5357 27.5875 35.1423 28.0115 34.9743 28.5531C34.8062 29.0947 34.8866 29.6799 35.0473 30.8502L35.8564 36.7424C36.4107 40.7796 36.6879 42.7982 35.5472 43.6662C34.4064 44.5342 32.659 43.6343 29.1641 41.8346L24.0635 39.2079C23.0503 38.6862 22.5438 38.4254 22 38.4254C21.4562 38.4254 20.9497 38.6862 19.9365 39.2079L14.8359 41.8346C11.341 43.6343 9.59358 44.5342 8.45283 43.6662C7.31208 42.7982 7.58927 40.7796 8.14363 36.7424L8.95271 30.8502C9.11341 29.6799 9.19376 29.0947 9.02573 28.5531C8.8577 28.0115 8.46427 27.5875 7.67741 26.7396L3.71598 22.4708C1.00166 19.5459 -0.355507 18.0835 0.080221 16.679C0.515949 15.2745 2.4347 14.9268 6.2722 14.2314L11.8729 13.2165C12.9853 13.015 13.5415 12.9142 13.9815 12.5794C14.4214 12.2447 14.6848 11.7218 15.2116 10.676L17.8639 5.41116Z" fill="white"/>
<path d="M25.8492 18.9548L26.2003 19.3059L25.8492 18.9548L19.9032 24.9008L17.1508 22.1484C16.5444 21.542 15.5612 21.542 14.9548 22.1484L15.3084 22.502L14.9548 22.1484C14.3484 22.7548 14.3484 23.738 14.9548 24.3444L18.7834 28.173C19.1191 28.5088 19.5703 28.6586 20.0092 28.6226C20.3791 28.6034 20.7435 28.4525 21.0261 28.1699L28.0452 21.1508C28.6516 20.5444 28.6516 19.5612 28.0452 18.9548C27.4388 18.3484 26.4556 18.3484 25.8492 18.9548Z" fill="#FCC97C" stroke="#FCC97C"/>
</svg>
