<svg width="24" height="24" viewBox="0 0 24 24" fill="none" xmlns="http://www.w3.org/2000/svg">
<path d="M5.17784 4.30969C5.12017 3.60676 5.64428 2.98303 6.34936 3.00035C8.12423 3.04395 9.87297 3.48109 11.467 4.28663C13.4422 5.28479 15.1029 6.80972 16.2654 8.69282C17.428 10.5759 18.0472 12.7438 18.0546 14.9569C18.0605 16.7429 17.6678 18.5021 16.9115 20.1084C16.611 20.7465 15.8186 20.9356 15.216 20.5691C14.6134 20.2026 14.431 19.4194 14.7129 18.7729C15.2348 17.5763 15.5049 16.28 15.5005 14.9654C15.4947 13.2233 15.0073 11.5168 14.0922 10.0345C13.177 8.55225 11.8698 7.35189 10.315 6.56617C9.14167 5.97322 7.86181 5.63385 6.55822 5.56425C5.85393 5.52665 5.23551 5.01262 5.17784 4.30969Z" fill="white"/>
<path d="M5.24838 8.85671C5.19821 8.1394 5.74206 7.50619 6.45803 7.57292C7.48481 7.66861 8.48762 7.96234 9.40959 8.44227C10.7183 9.12351 11.8131 10.1534 12.573 11.418C13.3329 12.6827 13.7282 14.1328 13.7154 15.6081C13.7063 16.6475 13.4949 17.6708 13.0974 18.6223C12.8202 19.2858 12.0058 19.4688 11.396 19.0877C10.7862 18.7067 10.6182 17.9047 10.8425 17.2215C11.0151 16.6957 11.1066 16.144 11.1115 15.5854C11.1202 14.5903 10.8535 13.6122 10.3409 12.7592C9.82839 11.9062 9.08994 11.2115 8.20723 10.752C7.71177 10.4941 7.18168 10.3159 6.63639 10.2215C5.92786 10.0988 5.29855 9.57403 5.24838 8.85671Z" fill="white"/>
<path d="M5.00282 12.6827C4.9582 12.0447 5.44857 11.4745 6.07273 11.6139C6.41033 11.6893 6.73832 11.8085 7.04806 11.9697C7.7024 12.3103 8.2498 12.8253 8.62975 13.4576C9.0097 14.0899 9.20738 14.815 9.20095 15.5526C9.19791 15.9018 9.14919 16.2474 9.05725 16.5808C8.88729 17.1974 8.15366 17.3627 7.61131 17.0238L7.41448 16.9008C6.98084 16.6298 6.88067 16.0438 6.88513 15.5325C6.88783 15.2219 6.8046 14.9166 6.64464 14.6504C6.48467 14.3842 6.2542 14.1674 5.97871 14.024C5.52514 13.7879 5.05469 13.4243 5.01901 12.9142L5.00282 12.6827Z" fill="white"/>
</svg>
