<svg width="24" height="24" viewBox="0 0 24 24" fill="none" xmlns="http://www.w3.org/2000/svg">
<path d="M3 16H7H20C20.5523 16 21 16.4477 21 17V20C21 20.5523 20.5523 21 20 21H3C2.44772 21 2 20.5523 2 20V17C2 16.4477 2.44772 16 3 16Z" stroke="white" stroke-width="1.5" stroke-linecap="round" stroke-linejoin="round"/>
<path d="M20.5313 7.63467L17.174 4.3613C16.3972 3.60396 15.1583 3.60396 14.3816 4.3613L7.46872 11.1013C6.66365 11.8863 6.66365 13.1804 7.46872 13.9653L9.55556 16H14.8889L20.5313 10.4987C21.3363 9.71373 21.3363 8.41961 20.5313 7.63467Z" stroke="white" stroke-width="1.5" stroke-linecap="round" stroke-linejoin="round"/>
<path d="M18 5L8 15" stroke="white" stroke-width="1.5" stroke-linejoin="round"/>
<path d="M2 4H7" stroke="white" stroke-width="1.5" stroke-linecap="round" stroke-linejoin="round"/>
<path d="M2 7H5" stroke="white" stroke-width="1.5" stroke-linecap="round" stroke-linejoin="round"/>
<path d="M2 10H3" stroke="white" stroke-width="1.5" stroke-linecap="round" stroke-linejoin="round"/>
</svg>
